<svg width="96" height="96" viewBox="0 0 96 96" fill="none" xmlns="http://www.w3.org/2000/svg">
<path d="M82.2413 40.755L52.2413 10.755C51.1162 9.63062 49.5907 8.99902 48 8.99902C46.4094 8.99902 44.8839 9.63062 43.7588 10.755L13.7588 40.755C13.1989 41.3107 12.7551 41.9722 12.4532 42.7009C12.1513 43.4297 11.9972 44.2112 12 45V81C12 81.7956 12.3161 82.5587 12.8787 83.1213C13.4413 83.6839 14.2044 84 15 84H39C39.7957 84 40.5587 83.6839 41.1214 83.1213C41.684 82.5587 42 81.7956 42 81V60H54V81C54 81.7956 54.3161 82.5587 54.8787 83.1213C55.4413 83.6839 56.2044 84 57 84H81C81.7957 84 82.5588 83.6839 83.1214 83.1213C83.684 82.5587 84 81.7956 84 81V45C84.0028 44.2112 83.8488 43.4297 83.5469 42.7009C83.2449 41.9722 82.8011 41.3107 82.2413 40.755ZM78 78H60V57C60 56.2043 59.684 55.4413 59.1214 54.8787C58.5588 54.3161 57.7957 54 57 54H39C38.2044 54 37.4413 54.3161 36.8787 54.8787C36.3161 55.4413 36 56.2043 36 57V78H18V45L48 15L78 45V78Z" fill="#101014"/>
</svg>
