<svg width="50" height="37" viewBox="0 0 50 37" fill="none" xmlns="http://www.w3.org/2000/svg">
<rect width="50" height="36.6667" rx="5" fill="#101014"/>
<rect width="50" height="36.6667" rx="5" fill="url(#paint0_linear_20503_116965)"/>
<rect x="0.416667" y="0.416667" width="49.1667" height="35.8333" rx="4.58333" stroke="white" stroke-opacity="0.2" stroke-width="0.833333"/>
<g clip-path="url(#clip0_20503_116965)">
<path d="M12.7704 5.78418H22.7756C24.1722 5.78418 25.0408 6.92255 24.715 8.32381L20.0569 28.3228C19.7282 29.7192 18.3299 30.8586 16.9323 30.8586H6.92811C5.53343 30.8586 4.66283 29.7192 4.98863 28.3228L9.64869 8.32381C9.97449 6.92255 11.3721 5.78418 12.7704 5.78418Z" fill="#E21836"/>
<path d="M21.9428 5.78418H33.4484C34.8448 5.78418 34.2151 6.92255 33.8866 8.32381L29.2293 28.3228C28.9025 29.7192 29.0044 30.8586 27.6051 30.8586H16.0995C14.7002 30.8586 13.8342 29.7192 14.1629 28.3228L18.8201 8.32381C19.1507 6.92255 20.5454 5.78418 21.9428 5.78418Z" fill="#00447C"/>
<path d="M32.9921 5.78418H42.9972C44.3958 5.78418 45.2645 6.92255 44.936 8.32381L40.2786 28.3228C39.9499 29.7192 38.5506 30.8586 37.1522 30.8586H27.1517C25.7524 30.8586 24.8845 29.7192 25.2123 28.3228L29.8704 8.32381C30.1962 6.92255 31.5928 5.78418 32.9921 5.78418Z" fill="#007B84"/>
<path d="M15.3831 12.1935C14.3542 12.204 14.0503 12.1935 13.9533 12.1706C13.916 12.3479 13.2217 15.5506 13.2197 15.5533C13.0702 16.2012 12.9615 16.6631 12.592 16.9614C12.3823 17.1347 12.1375 17.2184 11.8536 17.2184C11.3973 17.2184 11.1315 16.9918 11.0869 16.5621L11.0783 16.4146C11.0783 16.4146 11.2173 15.5467 11.2173 15.5418C11.2173 15.5418 11.946 12.6232 12.0765 12.2374C12.0833 12.2155 12.0853 12.204 12.087 12.1935C10.6686 12.206 10.4172 12.1935 10.3999 12.1706C10.3904 12.202 10.3553 12.383 10.3553 12.383L9.61124 15.6725L9.54735 15.9515L9.42371 16.8641C9.42371 17.1347 9.47687 17.3557 9.58271 17.5425C9.92168 18.1348 10.8886 18.2236 11.4356 18.2236C12.1404 18.2236 12.8015 18.0739 13.2483 17.8005C14.0238 17.3423 14.2267 16.626 14.4076 15.9895L14.4915 15.663C14.4915 15.663 15.2421 12.6317 15.3697 12.2374C15.3745 12.2155 15.3765 12.204 15.3831 12.1935ZM17.937 14.6389C17.7561 14.6389 17.4254 14.6828 17.1284 14.8283C17.0206 14.8837 16.9186 14.9476 16.8111 15.0112L16.9082 14.6608L16.855 14.6018C16.2251 14.7293 16.0841 14.7464 15.5023 14.8283L15.4535 14.8608C15.3859 15.4209 15.3259 15.8421 15.0755 16.9432C14.9801 17.349 14.8811 17.7587 14.7819 18.1635L14.8087 18.2149C15.405 18.1835 15.5859 18.1835 16.1041 18.192L16.1461 18.1464C16.2119 17.8091 16.2204 17.7301 16.3663 17.0471C16.4348 16.7232 16.5777 16.0116 16.6482 15.7582C16.7777 15.6982 16.9055 15.6392 17.0274 15.6392C17.3178 15.6392 17.2825 15.8926 17.2713 15.9935C17.2588 16.163 17.153 16.7166 17.0445 17.1919L16.972 17.4987C16.9216 17.7252 16.8662 17.9455 16.8157 18.1701L16.8377 18.2149C17.4254 18.1835 17.6046 18.1835 18.1065 18.192L18.1655 18.1464C18.2562 17.6197 18.2828 17.4787 18.4438 16.7117L18.5247 16.3593C18.682 15.6697 18.7611 15.32 18.642 15.0351C18.5162 14.7159 18.2143 14.6389 17.937 14.6389ZM20.7901 15.3609C20.4777 15.4209 20.2784 15.4609 20.0804 15.4868C19.8841 15.5182 19.6927 15.5468 19.3908 15.5887L19.3669 15.6104L19.3449 15.6277C19.3135 15.8526 19.2915 16.0469 19.2498 16.2754C19.2144 16.5117 19.1601 16.7802 19.0715 17.166C19.003 17.4614 18.9677 17.5643 18.9286 17.6682C18.8906 17.772 18.8486 17.873 18.7716 18.1634L18.7896 18.1903L18.8048 18.2149C19.0869 18.2015 19.2715 18.192 19.4612 18.1903C19.6507 18.1834 19.847 18.1903 20.1509 18.192L20.1775 18.1703L20.206 18.1464C20.2499 17.8845 20.2565 17.814 20.2833 17.6862C20.3099 17.5491 20.3557 17.3594 20.4682 16.8527C20.5213 16.6147 20.5806 16.3774 20.6357 16.1345C20.693 15.8926 20.753 15.6543 20.8101 15.4163L20.8015 15.3875L20.7901 15.3609ZM20.7967 14.3874C20.5129 14.2198 20.0146 14.273 19.6793 14.5044C19.345 14.7312 19.3069 15.0531 19.5898 15.2229C19.8688 15.3858 20.369 15.3372 20.7014 15.1038C21.035 14.8722 21.0767 14.5532 20.7967 14.3874ZM22.5134 18.2674C23.0877 18.2674 23.6764 18.1091 24.1195 17.6395C24.4605 17.2585 24.6168 16.6918 24.6709 16.4584C24.8472 15.6849 24.7099 15.3237 24.5375 15.1037C24.2756 14.7684 23.8128 14.6609 23.3326 14.6609C23.0438 14.6609 22.3561 14.6894 21.8189 15.1847C21.4331 15.542 21.2548 16.0268 21.1473 16.4916C21.0388 16.9652 20.9139 17.8177 21.6979 18.135C21.9399 18.2389 22.2886 18.2674 22.5134 18.2674ZM22.4686 16.5269C22.601 15.9412 22.7573 15.4495 23.1563 15.4495C23.4689 15.4495 23.4916 15.8153 23.3526 16.403C23.3277 16.5335 23.2136 17.0186 23.0592 17.2251C22.9514 17.3775 22.8239 17.47 22.6829 17.47C22.641 17.47 22.3915 17.47 22.3876 17.0995C22.3856 16.9166 22.423 16.7298 22.4686 16.5269ZM26.1066 18.1921L26.1514 18.1465C26.2151 17.8092 26.2256 17.73 26.3665 17.0471C26.437 16.7233 26.5828 16.0117 26.6514 15.7583C26.7811 15.6981 26.9067 15.639 27.0325 15.639C27.321 15.639 27.2859 15.8924 27.2744 15.9934C27.264 16.1631 27.1581 16.7164 27.0476 17.1917L26.9791 17.4985C26.9267 17.7253 26.8696 17.9453 26.8191 18.1701L26.8411 18.215C27.4308 18.1835 27.6032 18.1835 28.108 18.1921L28.1689 18.1465C28.2575 17.6195 28.2814 17.4785 28.4472 16.7118L28.5262 16.3592C28.6842 15.6695 28.7642 15.3201 28.6472 15.0352C28.5177 14.716 28.2138 14.6389 27.9404 14.6389C27.7593 14.6389 27.4269 14.6826 27.1315 14.8284C27.0259 14.8838 26.9201 14.9474 26.8162 15.0113L26.9067 14.6609L26.8582 14.6016C26.2285 14.7294 26.0846 14.7465 25.5035 14.8284L25.4589 14.8609C25.3884 15.421 25.3311 15.8419 25.0806 16.9432C24.9853 17.349 24.8863 17.7587 24.7872 18.1635L24.8138 18.215C25.4111 18.1835 25.5893 18.1835 26.1066 18.1921ZM30.439 18.2149C30.476 18.0339 30.6963 16.9614 30.6982 16.9614C30.6982 16.9614 30.8857 16.1744 30.8972 16.1459C30.8972 16.1459 30.9562 16.064 31.0152 16.0315H31.1021C31.9212 16.0315 32.8462 16.0315 33.5712 15.4982C34.0646 15.1324 34.4018 14.5922 34.5523 13.9357C34.5913 13.7748 34.6201 13.5834 34.6201 13.3919C34.6201 13.1405 34.5696 12.8918 34.4238 12.6974C34.0541 12.1802 33.3178 12.1706 32.468 12.1667C32.4653 12.1667 32.049 12.1706 32.049 12.1706C30.9611 12.1841 30.5248 12.1802 30.3456 12.1582C30.3305 12.2375 30.3019 12.3784 30.3019 12.3784C30.3019 12.3784 29.9122 14.1845 29.9122 14.1874C29.9122 14.1874 28.9797 18.0273 28.9358 18.2083C29.8856 18.1968 30.2751 18.1968 30.439 18.2149ZM31.1611 15.0066C31.1611 15.0066 31.5754 13.2041 31.5735 13.211L31.5869 13.1186L31.5927 13.0481L31.7583 13.0651C31.7583 13.0651 32.6128 13.1385 32.6328 13.1405C32.9701 13.271 33.1091 13.6073 33.012 14.0462C32.9235 14.4474 32.6633 14.7846 32.329 14.9476C32.0536 15.0856 31.7164 15.097 31.3688 15.097H31.144L31.1611 15.0066ZM33.7408 16.5603C33.6313 17.0271 33.5055 17.8796 34.2856 18.1835C34.5343 18.2893 34.7572 18.3208 34.9838 18.3093C35.223 18.2964 35.4447 18.1764 35.65 18.0038C35.6315 18.0747 35.613 18.1457 35.5944 18.2169L35.6298 18.2625C36.1909 18.2389 36.365 18.2389 36.973 18.2435L37.0281 18.2015C37.1169 17.6797 37.2005 17.1729 37.4312 16.1745C37.5437 15.6963 37.6558 15.2227 37.7712 14.7464L37.7531 14.694C37.1254 14.8103 36.9576 14.8352 36.3538 14.9208L36.308 14.9581C36.3019 15.0066 36.2955 15.0532 36.2897 15.0998C36.1958 14.9481 36.0597 14.8186 35.8498 14.7379C35.5813 14.6323 34.9506 14.7684 34.4085 15.262C34.0276 15.6144 33.8447 16.0972 33.7408 16.5603ZM35.0591 16.5888C35.1935 16.0136 35.3479 15.5268 35.7478 15.5268C36.0007 15.5268 36.1339 15.7602 36.1068 16.1582C36.0853 16.2574 36.0622 16.3621 36.0346 16.4803C35.9946 16.6513 35.9512 16.8208 35.909 16.9905C35.8661 17.1066 35.8161 17.2161 35.7612 17.289C35.6583 17.4348 35.4135 17.5253 35.2725 17.5253C35.2325 17.5253 34.9857 17.5253 34.9772 17.1614C34.9752 16.9803 35.0126 16.7937 35.0591 16.5888ZM41.9436 14.6893L41.8951 14.634C41.274 14.7598 41.1615 14.7798 40.5909 14.8569L40.5489 14.8988C40.547 14.9057 40.5453 14.9161 40.5424 14.9257L40.5404 14.9161C40.1156 15.8962 40.128 15.6848 39.7822 16.4564C39.7803 16.4213 39.7803 16.3993 39.7783 16.362L39.6918 14.6893L39.6374 14.634C38.9867 14.7598 38.9714 14.7798 38.3705 14.8569L38.3237 14.8988C38.3171 14.9188 38.3171 14.9408 38.3132 14.9647L38.3171 14.9732C38.3922 15.3571 38.3741 15.2715 38.4495 15.8772C38.4846 16.1745 38.5314 16.4735 38.5666 16.7671C38.6258 17.2585 38.659 17.5004 38.7314 18.2503C38.3256 18.9199 38.2295 19.1733 37.8389 19.761L37.8415 19.7669L37.5665 20.202C37.535 20.2478 37.5065 20.2793 37.4665 20.2927C37.4226 20.3144 37.3655 20.3183 37.2863 20.3183H37.1338L36.9073 21.0718L37.6845 21.0852C38.1408 21.0833 38.4275 20.8699 38.5819 20.5831L39.0706 19.7457H39.0628L39.1143 19.6867C39.443 18.979 41.9436 14.6893 41.9436 14.6893ZM33.7408 24.5861H33.4111L34.6314 20.5498H35.0362L35.1647 20.134L35.1771 20.5964C35.162 20.8822 35.3869 21.1356 35.9775 21.0937H36.6606L36.8957 20.3165H36.6386C36.4909 20.3165 36.4223 20.2791 36.4309 20.1992L36.4184 19.7287H35.1535V19.7312C34.7445 19.7397 33.5232 19.7704 33.276 19.8363C32.9767 19.9133 32.6614 20.1401 32.6614 20.1401L32.7853 19.7239H31.6021L31.3555 20.5498L30.1189 24.6478H29.8789L29.6436 25.4194H32.0003L31.9213 25.6766H33.0826L33.1596 25.4194H33.4854L33.7408 24.5861ZM32.7738 21.37C32.5844 21.4224 32.2317 21.5814 32.2317 21.5814L32.5453 20.5498H33.4854L33.2586 21.3014C33.2586 21.3014 32.9682 21.3185 32.7738 21.37ZM32.7919 22.8436C32.7919 22.8436 32.4966 22.8807 32.3022 22.9246C32.1108 22.9826 31.7518 23.1655 31.7518 23.1655L32.0756 22.092H33.0206L32.7919 22.8436ZM32.2651 24.5956H31.3221L31.5955 23.6896H32.5356L32.2651 24.5956ZM34.5362 22.092H35.8955L35.7001 22.7246H34.3228L34.116 23.4162H35.3212L34.4086 24.7012C34.3447 24.7956 34.2874 24.829 34.2238 24.8555C34.1599 24.888 34.076 24.926 33.9789 24.926H33.6446L33.4149 25.6835H34.2894C34.7439 25.6835 35.0124 25.4767 35.2107 25.2053L35.8365 24.3488L35.9708 25.2184C35.9994 25.3813 36.1164 25.4767 36.1957 25.5137C36.2832 25.5576 36.3737 25.633 36.5015 25.6442C36.6385 25.6501 36.7376 25.6547 36.8034 25.6547H37.2331L37.4911 24.807H37.3216C37.2243 24.807 37.0568 24.7907 37.0282 24.7602C36.9997 24.7231 36.9997 24.6661 36.9843 24.5792L36.848 23.7077H36.2898L36.5347 23.4162H37.9093L38.1208 22.7246H36.848L37.0463 22.092H38.3151L38.5505 21.3119H34.7676L34.5362 22.092ZM23.0554 24.7717L23.3726 23.7163H24.6766L24.9148 22.9313H23.6097L23.8089 22.2816H25.0843L25.3206 21.5215H22.1294L21.898 22.2816H22.623L22.4296 22.9313H21.7026L21.4617 23.7297H22.1865L21.7636 25.1261C21.7065 25.3109 21.7904 25.3814 21.8436 25.4672C21.898 25.5509 21.9531 25.6062 22.077 25.6377C22.2047 25.6662 22.2923 25.6833 22.4113 25.6833H23.8813L24.1432 24.8137L23.4916 24.9032C23.3658 24.9032 23.0173 24.8881 23.0554 24.7717ZM23.2049 19.7191L22.8745 20.3163C22.8038 20.4468 22.7401 20.5278 22.6828 20.5651C22.6323 20.5965 22.5323 20.6097 22.3875 20.6097H22.2151L21.9846 21.3737H22.5572C22.8325 21.3737 23.044 21.2728 23.1449 21.2223C23.2534 21.1643 23.282 21.1974 23.3659 21.1165L23.5593 20.9489H25.3473L25.5846 20.1534H24.2757L24.5042 19.7191H23.2049ZM25.8446 24.7871C25.8141 24.7432 25.8361 24.6659 25.8827 24.5049L26.3714 22.8873H28.1099C28.3633 22.8837 28.5462 22.8808 28.6652 22.8722C28.793 22.8588 28.932 22.8132 29.0834 22.7313C29.2397 22.6454 29.3197 22.555 29.3873 22.4511C29.4626 22.3474 29.5836 22.1206 29.6875 21.7709L30.3018 19.7239L28.4977 19.7344C28.4977 19.7344 27.9421 19.8163 27.6975 19.9068C27.4507 20.0078 27.0981 20.2897 27.0981 20.2897L27.261 19.7285H26.1465L24.5863 24.9031C24.5309 25.1041 24.4938 25.2499 24.4853 25.3375C24.4824 25.4319 24.6043 25.5253 24.6833 25.5957C24.7767 25.6662 24.9148 25.6547 25.0472 25.6662C25.1864 25.6767 25.3845 25.6833 25.6578 25.6833H26.5143L26.7772 24.7956L26.0105 24.868C25.9285 24.868 25.8693 24.8241 25.8446 24.7871ZM26.6867 21.7948H28.5128L28.3967 22.1587C28.3804 22.1672 28.3413 22.1406 28.1555 22.1626H26.5743L26.6867 21.7948ZM27.0525 20.5745H28.8939L28.7615 21.0127C28.7615 21.0127 27.8936 21.0042 27.7546 21.0298C27.143 21.1356 26.7857 21.4624 26.7857 21.4624L27.0525 20.5745ZM28.4376 23.3771C28.4224 23.4315 28.3986 23.4647 28.3651 23.4895C28.3281 23.5134 28.2681 23.522 28.1786 23.522H27.9184L27.9337 23.0789H26.8515L26.8076 25.2451C26.8059 25.4014 26.821 25.4919 26.9353 25.5643C27.0497 25.6548 27.4021 25.6663 27.8764 25.6663H28.5546L28.7995 24.8554L28.2091 24.8879L28.0128 24.8993C27.9859 24.8879 27.9603 24.8774 27.9318 24.8488C27.9069 24.8242 27.865 24.8393 27.8718 24.683L27.8764 24.1277L28.4956 24.1021C28.8299 24.1021 28.9729 23.9934 29.0948 23.8897C29.2111 23.7905 29.2492 23.6763 29.2931 23.522L29.3969 23.0303H28.5461L28.4376 23.3771Z" fill="#FEFEFE"/>
</g>
<defs>
<linearGradient id="paint0_linear_20503_116965" x1="50" y1="-4.28359e-06" x2="-0.881373" y2="35.3998" gradientUnits="userSpaceOnUse">
<stop stop-color="white" stop-opacity="0.1"/>
<stop offset="1" stop-color="white" stop-opacity="0"/>
</linearGradient>
<clipPath id="clip0_20503_116965">
<rect width="40.1594" height="25.0997" fill="white" transform="translate(4.92029 5.78418)"/>
</clipPath>
</defs>
</svg>
